<svg width="32" height="19" viewBox="0 0 32 19" fill="none" xmlns="http://www.w3.org/2000/svg">
<g filter="url(#filter0_d_374_50)">
<path d="M18.2563 17.2629C20.4157 16.4926 25.0646 13.6978 26.385 8.68034H30.9368C30.9518 8.68034 30.9634 8.69337 30.9608 8.70812C30.9236 8.92215 30.7601 9.3299 30.3581 9.46055C30.3503 9.46309 30.342 9.46432 30.3337 9.46432H27.3753C27.2747 9.70922 27.1441 9.98736 26.9832 10.2896H29.2863C29.3013 10.2896 29.3129 10.3026 29.3103 10.3173C29.2731 10.5314 29.1096 10.9391 28.7076 11.0698C28.6998 11.0723 28.6915 11.0735 28.6833 11.0735H26.5282C25.1269 13.3082 22.3802 16.2773 18.2563 17.2629Z" fill="url(#paint0_linear_374_50)"/>
<path d="M9.79763 6.28712C12.2733 2.28471 17.5136 0.634206 19.9481 0.634206C13.5937 0.345371 10.1277 4.26527 9.05489 5.50314L0.785958 5.50315C0.772284 5.50315 0.761147 5.51422 0.761741 5.52788C0.777586 5.89257 1.13804 6.2871 1.38013 6.2871L9.79763 6.28712Z" fill="url(#paint1_linear_374_50)"/>
<path d="M22.0834 5.2316C20.2959 4.02615 17.427 4.2972 15.0852 6.04985C12.3003 8.13424 11.3156 11.5249 12.886 13.623C12.9822 13.7516 13.0858 13.8724 13.1961 13.9853C12.8578 13.7571 12.5582 13.476 12.3083 13.1421C10.7379 11.0439 11.7226 7.65331 14.5076 5.56892C17.1219 3.61227 20.3933 3.50219 22.0834 5.2316Z" fill="url(#paint2_linear_374_50)"/>
<path fill-rule="evenodd" clip-rule="evenodd" d="M21.2022 14.5694C16.9975 17.7227 11.748 17.8241 9.47707 14.796C7.93198 12.7358 8.16381 9.7576 9.79413 7.07115C10.56 5.80912 11.6345 4.61148 12.9784 3.60362C17.1831 0.450323 22.4326 0.348844 24.7036 3.37695C26.9745 6.40507 25.4069 11.4161 21.2022 14.5694ZM19.9389 12.9404C16.9941 15.1444 13.3338 15.2302 11.7634 13.132C10.1931 11.0339 11.3073 7.54628 14.2522 5.34226C17.197 3.13824 20.8572 3.05242 22.4276 5.15058C23.9979 7.24874 22.8837 10.7363 19.9389 12.9404ZM10.3925 14.8911C12.7105 17.0202 17.1148 16.7009 20.7125 14.0029C24.6302 11.0647 26.1078 6.41823 24.0128 3.6246C23.9334 3.51882 23.8501 3.41722 23.763 3.31978C23.965 3.50552 24.1508 3.71014 24.3185 3.9337C26.3952 6.70292 24.9028 11.3296 20.985 14.2678C17.2235 17.0887 12.5938 17.3275 10.3925 14.8911Z" fill="url(#paint3_linear_374_50)"/>
<path d="M3.07188 7.85509L9.36198 7.85509C9.49281 7.59179 9.63697 7.33011 9.79413 7.07115H2.47771C2.46403 7.07115 2.45289 7.08221 2.45349 7.09587C2.46933 7.46056 2.82979 7.85509 3.07188 7.85509Z" fill="url(#paint4_linear_374_50)"/>
<ellipse cx="17.8064" cy="10.091" rx="2.52095" ry="1.80664" transform="rotate(-38.1899 17.8064 10.091)" fill="url(#paint5_linear_374_50)"/>
<path fill-rule="evenodd" clip-rule="evenodd" d="M18.8974 5.43887C19.0991 5.46452 19.2299 5.66458 19.1724 5.85957L19.0433 6.29832C19.4583 6.38095 19.8294 6.5544 20.1251 6.82006L20.6859 6.44921C20.834 6.35122 21.0332 6.38807 21.1365 6.53259L21.3214 6.79126C21.4247 6.93579 21.3951 7.13616 21.2544 7.24463L20.6863 7.68262C20.8107 8.05954 20.8311 8.47867 20.7561 8.91012L21.3831 8.93366C21.5863 8.94129 21.7343 9.12893 21.6944 9.32825L21.629 9.65552C21.5991 9.80487 21.471 9.9144 21.3188 9.92061L20.3952 9.95836C20.1641 10.4065 19.8379 10.8422 19.4262 11.2319L19.7085 11.6945C19.7992 11.8432 19.7587 12.0369 19.6159 12.1368L19.1151 12.4874C18.9724 12.5873 18.7766 12.559 18.6679 12.4229L18.3474 12.0215C17.8919 12.2726 17.4215 12.4406 16.9649 12.524L16.6837 13.2607C16.6293 13.403 16.4847 13.4896 16.3336 13.4704L16.0014 13.4281C15.8001 13.4025 15.6694 13.2032 15.7261 13.0084L15.8583 12.5542C15.3855 12.4858 14.9627 12.305 14.6331 12.0101L14.0157 12.4187C13.8675 12.5168 13.6683 12.4799 13.565 12.3354L13.3802 12.0768C13.2769 11.9323 13.3065 11.7319 13.4472 11.6234L14.0686 11.1445C13.947 10.7758 13.9248 10.3668 13.9941 9.94536L13.5092 9.92568C13.3065 9.91746 13.1591 9.73006 13.1989 9.53113L13.2646 9.2027C13.2944 9.05335 13.4226 8.94382 13.5748 8.93761L14.3409 8.90633C14.5638 8.46313 14.8797 8.03128 15.2794 7.64288L14.993 7.17288C14.9024 7.02413 14.9429 6.83057 15.0856 6.73069L15.5867 6.37999C15.7294 6.2801 15.9251 6.3083 16.0339 6.4444L16.3489 6.83878C16.8794 6.53707 17.4319 6.34882 17.9607 6.27609L18.2163 5.60647C18.2707 5.46419 18.4153 5.37754 18.5664 5.39676L18.8974 5.43887ZM18.4876 10.8353C19.6284 9.93784 20.0518 8.57284 19.4331 7.78643C18.8145 7.00003 17.3882 7.09001 16.2474 7.98742C15.1066 8.88483 14.6833 10.2498 15.3019 11.0362C15.9205 11.8226 17.3468 11.7327 18.4876 10.8353Z" fill="#E2E2E2"/>
</g>
<defs>
<filter id="filter0_d_374_50" x="-0.0889698" y="0.619049" width="31.9006" height="18.3452" filterUnits="userSpaceOnUse" color-interpolation-filters="sRGB">
<feFlood flood-opacity="0" result="BackgroundImageFix"/>
<feColorMatrix in="SourceAlpha" type="matrix" values="0 0 0 0 0 0 0 0 0 0 0 0 0 0 0 0 0 0 127 0" result="hardAlpha"/>
<feOffset dy="0.850689"/>
<feGaussianBlur stdDeviation="0.425344"/>
<feComposite in2="hardAlpha" operator="out"/>
<feColorMatrix type="matrix" values="0 0 0 0 0 0 0 0 0 0 0 0 0 0 0 0 0 0 0.25 0"/>
<feBlend mode="normal" in2="BackgroundImageFix" result="effect1_dropShadow_374_50"/>
<feBlend mode="normal" in="SourceGraphic" in2="effect1_dropShadow_374_50" result="shape"/>
</filter>
<linearGradient id="paint0_linear_374_50" x1="2.24663" y1="3.87876" x2="30.4287" y2="13.5341" gradientUnits="userSpaceOnUse">
<stop stop-color="#E21707"/>
<stop offset="1" stop-color="#B7180B"/>
</linearGradient>
<linearGradient id="paint1_linear_374_50" x1="2.24663" y1="3.87876" x2="30.4287" y2="13.5341" gradientUnits="userSpaceOnUse">
<stop stop-color="#E21707"/>
<stop offset="1" stop-color="#B7180B"/>
</linearGradient>
<linearGradient id="paint2_linear_374_50" x1="2.24663" y1="3.87876" x2="30.4287" y2="13.5341" gradientUnits="userSpaceOnUse">
<stop stop-color="#E21707"/>
<stop offset="1" stop-color="#B7180B"/>
</linearGradient>
<linearGradient id="paint3_linear_374_50" x1="2.24663" y1="3.87876" x2="30.4287" y2="13.5341" gradientUnits="userSpaceOnUse">
<stop stop-color="#E21707"/>
<stop offset="1" stop-color="#B7180B"/>
</linearGradient>
<linearGradient id="paint4_linear_374_50" x1="2.24663" y1="3.87876" x2="30.4287" y2="13.5341" gradientUnits="userSpaceOnUse">
<stop stop-color="#E21707"/>
<stop offset="1" stop-color="#B7180B"/>
</linearGradient>
<linearGradient id="paint5_linear_374_50" x1="17.3428" y1="9.81827" x2="17.2277" y2="8.27327" gradientUnits="userSpaceOnUse">
<stop stop-color="#D12F22"/>
<stop offset="1" stop-color="#9B1308"/>
</linearGradient>
</defs>
</svg>
